<svg xmlns:x="http://ns.adobe.com/Extensibility/1.0/" xmlns:i="http://ns.adobe.com/AdobeIllustrator/10.0/" xmlns:graph="http://ns.adobe.com/Graphs/1.0/" xmlns="http://www.w3.org/2000/svg" xmlns:xlink="http://www.w3.org/1999/xlink" xmlns:a="http://ns.adobe.com/AdobeSVGViewerExtensions/3.0/" version="1.1" x="0px" y="0px" viewBox="0 0 100 125" style="enable-background:new 0 0 100 100;" xml:space="preserve"><style type="text/css">

	.st0{fill-rule:evenodd;clip-rule:evenodd;}

</style><path class="st0" d="M23.682,36.18h-5.176v-3.223h5.176V36.18L23.682,36.18z M10.4,32.957h5.176v3.223H10.4V32.957L10.4,32.957z   M25.146,30.027H8.936c-0.809,0-1.465,0.656-1.465,1.465v6.152c0,0.811,0.656,1.465,1.465,1.465h16.211  c0.809,0,1.465-0.654,1.465-1.465v-6.152C26.611,30.684,25.955,30.027,25.146,30.027L25.146,30.027z M72.705,48.57  c-1.797,9.049-8.129,14.613-14.834,20.504c-1.891,1.66-3.834,3.369-5.715,5.189c-1.881-1.82-3.824-3.529-5.715-5.189  c-6.703-5.891-13.037-11.455-14.834-20.504c-0.693-3.492,0.096-6.844,2.221-9.432c2.004-2.439,4.9-3.84,7.947-3.84  c3.402,0,6.68,1.799,9.227,5.064c0.277,0.357,0.703,0.564,1.154,0.564s0.877-0.207,1.156-0.564c3.262-4.186,6.818-5.064,9.225-5.064  c3.047,0,5.943,1.4,7.947,3.84C72.609,41.729,73.398,45.078,72.705,48.57L72.705,48.57z M62.537,32.369  c-3.809,0-7.441,1.705-10.381,4.841c-2.939-3.136-6.572-4.841-10.381-4.841c-3.928,0-7.65,1.791-10.211,4.91  c-2.693,3.279-3.697,7.492-2.83,11.861c1.99,10.023,8.686,15.906,15.773,22.135c2.203,1.935,4.482,3.939,6.609,6.076  c0.275,0.277,0.648,0.434,1.039,0.434s0.764-0.156,1.039-0.434c2.127-2.137,4.406-4.142,6.609-6.076  c7.088-6.229,13.783-12.111,15.773-22.135c0.867-4.369-0.137-8.582-2.83-11.861C70.186,34.16,66.465,32.369,62.537,32.369  L62.537,32.369z M96.875,80.693V29.461c0-2.424-1.971-4.395-4.395-4.395H7.52c-2.424,0-4.395,1.971-4.395,4.395v51.232  c0,2.424,1.971,4.395,4.395,4.395H92.48C94.904,85.088,96.875,83.117,96.875,80.693L96.875,80.693z M15.893,18.291h5.469v3.846  h-5.469V18.291L15.893,18.291z M40.439,14.912h19.121l1.99,7.225H38.449L40.439,14.912L40.439,14.912z M92.48,22.137H64.59  l-2.502-9.078c-0.174-0.637-0.752-1.076-1.412-1.076H39.324c-0.66,0-1.238,0.439-1.412,1.076l-2.502,9.078H24.291v-5.311  c0-0.809-0.656-1.465-1.465-1.465h-8.398c-0.809,0-1.465,0.656-1.465,1.465v5.311H7.52c-4.039,0-7.324,3.285-7.324,7.324v51.232  c0,4.039,3.285,7.324,7.324,7.324H92.48c4.039,0,7.324-3.285,7.324-7.324V29.461C99.805,25.422,96.52,22.137,92.48,22.137z"/></svg>